<?xml version="1.0" encoding="UTF-8"?>
<svg xmlns="http://www.w3.org/2000/svg" viewBox="-16 48 545 416" version="1.1">
  <path
    d="M 250,96 H 480 c 18,0 32,26 32,44 0,18 -14,45 -32,45 H 253 m 45,86 c 18,0 32,26 32,44 0,18 -14,43 -32,43 l -103,0 c -18,0 -32,-25 -32,-43 0,-18 14,-44 32,-44 z m -44,-86 74,0 c 18,0 32,26 32,44 0,18 -14,42 -32,42 l -127,0 m 73,88 c 18,0 32,27 32,45 0,18 -14,44 -32,44 l -83,0 c -18,0 -32,-26 -32,-44 0,-18 14,-45 32,-45 z M 160,448 C 72,448 0,376 0,288 V 226 C 0,184 17,143 47,113 L 58,102 C 82,78 115,64 149,64 h 27 c 35,0 75,29 75,64 v 103 c 0,22 -25,40 -47,40 -22,0 -44,-18 -44,-40 V 160 m 37,288 H 160"
    fill="none"
    stroke="currentColor"
    stroke-width="32"
    stroke-linecap="round"
    stroke-linejoin="round"/>
</svg>
